<?xml version="1.0" encoding="UTF-8" standalone="no"?>
<svg width="510px" height="230px" viewBox="0 0 510 230" version="1.1" xmlns="http://www.w3.org/2000/svg" xmlns:xlink="http://www.w3.org/1999/xlink" xmlns:sketch="http://www.bohemiancoding.com/sketch/ns">
    <defs></defs>
    <g id="Page-1" stroke="none" stroke-width="1" fill="none" fill-rule="evenodd" sketch:type="MSPage">
        <rect id="Rectangle-1" stroke-opacity="0.258746603" stroke="#979797" fill="#FFFFFF" sketch:type="MSShapeGroup" x="-1" y="-141" width="512" height="512"></rect>
        <path d="M105.351562,191.9375 C92.5390625,191.9375 85.4296875,185.53125 84.4921875,179.046875 L74.2578125,179.046875 C75.1953125,190.140625 84.5703125,200.765625 104.960938,200.765625 C125.820312,200.765625 138.945312,190.21875 138.945312,169.984375 L138.945312,89.515625 L129.570312,89.515625 L129.570312,103.109375 L129.101562,103.109375 C126.601562,96.703125 118.242188,88.1875 104.257812,88.1875 C86.8359375,88.1875 72.2265625,100.453125 72.2265625,122.09375 L72.2265625,135.21875 C72.2265625,156.234375 86.2890625,169.046875 104.257812,169.046875 C118.007812,169.046875 126.054688,160.765625 128.632812,154.515625 L129.179688,154.515625 L129.179688,170.140625 C129.179688,183.421875 120.976562,191.9375 105.351562,191.9375 L105.351562,191.9375 Z M105.976562,96.859375 C120.351562,96.859375 129.179688,109.046875 129.179688,122.71875 L129.179688,134.90625 C129.179688,147.796875 121.054688,160.296875 106.054688,160.296875 C92.3046875,160.296875 81.9921875,149.671875 81.9921875,132.953125 L81.9921875,124.515625 C81.9921875,107.171875 92.0703125,96.859375 105.976562,96.859375 L105.976562,96.859375 Z M168.867188,171 L178.632812,171 L178.632812,89.515625 L168.867188,89.515625 L168.867188,171 Z M165.898438,64.671875 C165.898438,69.046875 169.335938,72.40625 173.710938,72.40625 C178.242188,72.40625 181.601562,69.046875 181.601562,64.671875 C181.601562,60.0625 178.242188,56.78125 173.710938,56.78125 C169.335938,56.78125 165.898438,60.0625 165.898438,64.671875 L165.898438,64.671875 Z M213.945312,89.515625 L200.195312,89.515625 L200.195312,97.953125 L213.945312,97.953125 L213.945312,149.671875 C213.945312,164.984375 218.085938,171.546875 235.898438,171.546875 C238.710938,171.546875 243.867188,171.15625 245.117188,170.921875 L245.117188,162.71875 C243.789062,162.875 240.117188,163.109375 237.929688,163.109375 C227.539062,163.109375 223.789062,160.453125 223.789062,150.453125 L223.789062,97.953125 L243.867188,97.953125 L243.867188,89.515625 L223.789062,89.515625 L223.789062,69.28125 L213.945312,69.28125 L213.945312,89.515625 Z" id="git" fill="#3D474E" sketch:type="MSShapeGroup"></path>
        <path d="M260.601562,124.5 C260.601562,154.34375 279.273438,173.875 309.039062,173.875 C313.882812,173.875 318.570312,173.25 322.710938,172.078125 L328.726562,181.296875 L354.898438,181.296875 L342.476562,162.15625 C352.085938,153.484375 357.398438,140.515625 357.398438,124.5 L357.398438,113.171875 C357.398438,83.328125 338.882812,63.484375 309.039062,63.484375 C279.273438,63.484375 260.601562,83.09375 260.601562,113.171875 L260.601562,124.5 Z M287.945312,112.9375 C287.945312,95.125 296.695312,85.90625 309.039062,85.90625 C321.304688,85.90625 330.054688,95.125 330.054688,112.9375 L330.054688,125.125 C330.054688,131.765625 328.882812,137.078125 326.851562,141.21875 L325.210938,138.953125 L301.773438,138.953125 L310.835938,153.015625 C309.976562,153.40625 309.117188,153.5625 308.101562,153.5625 C296.226562,153.09375 287.945312,143.796875 287.945312,125.125 L287.945312,112.9375 Z M446.695312,148.796875 L405.054688,148.796875 L405.054688,65.359375 L377.085938,65.359375 L377.085938,172 L446.695312,172 L446.695312,148.796875 Z" id="QL" fill="#4285F4" sketch:type="MSShapeGroup"></path>
    </g>
</svg>
